<?xml version="1.0" encoding="UTF-8"?>
<svg version="1.1" xmlns="http://www.w3.org/2000/svg" width="2000" height="1657">
<path d="M0 0 C3.06785835 0.00461004 6.13531815 -0.00222949 9.203125 -0.02050781 C36.01178867 -0.17848671 62.53531571 1.1425002 89.00073242 5.75317383 C90.92526245 6.07729248 90.92526245 6.07729248 92.88867188 6.40795898 C102.88453854 8.11692363 112.81952721 9.98014801 122.68823242 12.31567383 C124.27498779 12.69079102 124.27498779 12.69079102 125.89379883 13.07348633 C140.6810143 16.60377679 155.29173245 20.42302872 169.68823242 25.31567383 C170.48600098 25.58347656 171.28376953 25.8512793 172.10571289 26.12719727 C201.86225009 36.149344 230.98166312 48.40918953 258.28686523 63.9519043 C260.58630915 65.2577902 262.89616726 66.54243085 265.21166992 67.81958008 C272.88030956 72.06055015 280.36983388 76.48771538 287.68823242 81.31567383 C288.5931543 81.90606445 289.49807617 82.49645508 290.43041992 83.10473633 C307.87869708 94.59506519 324.65581078 106.91511347 340.68823242 120.31567383 C341.20434082 120.74541504 341.72044922 121.17515625 342.25219727 121.61791992 C355.53444694 132.71091853 368.04991274 144.61282132 380.31323242 156.81567383 C380.95180176 157.44957031 381.59037109 158.0834668 382.24829102 158.73657227 C386.02899483 162.53022029 389.61545548 166.44586896 393.11645508 170.4987793 C395.05957399 172.74492576 397.05936318 174.93620191 399.06323242 177.12817383 C403.79056555 182.3798834 408.28817952 187.7883479 412.68823242 193.31567383 C413.19483398 193.94973145 413.70143555 194.58378906 414.22338867 195.23706055 C433.78695525 219.80136149 450.58144879 245.80743408 465.68823242 273.31567383 C466.1394043 274.13535645 466.59057617 274.95503906 467.05541992 275.79956055 C494.21697974 325.44142651 512.31271621 380.51017271 521.21362305 436.34545898 C521.63935539 439.00979011 522.08913028 441.66854803 522.54760742 444.32739258 C523.38418709 449.30900924 524.05077095 454.30517416 524.68823242 459.31567383 C524.89343506 460.82436035 524.89343506 460.82436035 525.1027832 462.36352539 C530.83480382 506.08714604 529.82852482 552.70551513 523.68823242 596.31567383 C523.59157288 597.01017639 523.49491333 597.70467896 523.39532471 598.42022705 C516.64260305 646.5175898 502.89912866 692.80025169 483.68823242 737.31567383 C482.95888719 739.03174378 482.22970182 740.74788169 481.50073242 742.46411133 C463.55921659 784.2285157 437.8489249 823.54521209 408.68823242 858.31567383 C407.87225586 859.30567383 407.0562793 860.29567383 406.21557617 861.31567383 C400.41557374 868.31033596 394.33995897 874.9993695 388.07836914 881.58398438 C384.38866002 885.46807186 380.81689638 889.42126485 377.34301758 893.50024414 C375.01439153 896.05493037 372.42313041 898.23629117 369.78979492 900.46801758 C367.48572137 902.49371793 365.34072085 904.6298995 363.18823242 906.81567383 C359.18056091 910.86417051 355.02007933 914.62022513 350.68823242 918.31567383 C349.64729386 919.21996145 348.6069806 920.12496914 347.56713867 921.03051758 C329.3227067 936.87020216 309.95727602 951.17020704 289.68823242 964.31567383 C288.98150391 964.77796387 288.27477539 965.24025391 287.54663086 965.71655273 C275.7345076 973.4240275 263.61273783 980.36722607 251.16381836 986.99194336 C248.98803128 988.15536718 246.82387232 989.33647401 244.66479492 990.53051758 C166.88495326 1033.34320263 73.83274535 1051.40169616 -139.88061523 1028.27041626 C-153.78446111 1024.22725927 -167.59951627 1019.8761695 -181.12426758 1014.69067383 C-181.98753662 1014.3600293 -182.85080566 1014.02938477 -183.74023438 1013.6887207 C-200.95007528 1007.02468533 -217.98933278 999.9446257 -234.31176758 991.31567383 C-235.32996582 990.78458008 -236.34816406 990.25348633 -237.3972168 989.70629883 C-252.4456067 981.8501384 -267.14484423 973.69696981 -281.31176758 964.31567383 C-282.68003453 963.42080209 -284.04851996 962.52626429 -285.41723633 961.63208008 C-292.87232928 956.73570324 -300.15647415 951.64297259 -307.31176758 946.31567383 C-308.28758789 945.59637695 -309.2634082 944.87708008 -310.26879883 944.13598633 C-317.11682509 939.05490907 -323.76882554 933.78306375 -330.31176758 928.31567383 C-330.83416016 927.87964844 -331.35655273 927.44362305 -331.89477539 926.99438477 C-349.25087811 912.48455914 -366.84373538 897.43094948 -381.60473633 880.23754883 C-383.2317932 878.40571363 -384.92479087 876.70439272 -386.68676758 875.00317383 C-390.78996071 870.95432762 -394.32896583 866.49795231 -397.93530273 862.00854492 C-399.45224292 860.1429076 -400.99486614 858.3006755 -402.54223633 856.46020508 C-410.46988337 847.0038936 -417.8772773 837.28655623 -424.98266602 827.19848633 C-426.06344698 825.66744614 -427.15821395 824.14628607 -428.25708008 822.62817383 C-437.73783331 809.43756064 -446.13752789 795.34698975 -454.31176758 781.31567383 C-454.7057373 780.6427832 -455.09970703 779.96989258 -455.50561523 779.27661133 C-461.73552458 768.56995777 -467.07567462 757.60309604 -472.08520508 746.27661133 C-473.42330496 743.25353931 -474.81149898 740.28083715 -476.31958008 737.33911133 C-495.02069566 700.40880342 -506.48632008 656.87815628 -513.31176758 616.31567383 C-513.5819873 614.73085205 -513.5819873 614.73085205 -513.85766602 613.11401367 C-515.18289866 605.2021591 -516.30654196 597.27425038 -517.31176758 589.31567383 C-517.46419922 588.12796387 -517.61663086 586.94025391 -517.77368164 585.71655273 C-524.24655239 532.83613455 -521.80756917 477.52693174 -511.31176758 425.31567383 C-511.17319336 424.62425293 -511.03461914 423.93283203 -510.8918457 423.22045898 C-505.29593154 395.43363633 -497.98277182 368.30156775 -488.17993164 341.67553711 C-487.58998272 340.07192454 -487.00621252 338.46602818 -486.42797852 336.8581543 C-480.93562117 321.59864368 -474.30811383 306.93989494 -467.31176758 292.31567383 C-466.9352002 291.52789551 -466.55863281 290.74011719 -466.1706543 289.9284668 C-450.32748008 257.01990895 -430.54720507 226.55230781 -408.18481445 197.73364258 C-406.42036936 195.45587092 -404.66910339 193.16860524 -402.92114258 190.87817383 C-401.92692335 189.5860665 -400.93217213 188.29436825 -399.93676758 187.00317383 C-399.49059082 186.41624756 -399.04441406 185.82932129 -398.5847168 185.22460938 C-397.54067886 183.88372092 -396.43250848 182.59314669 -395.31176758 181.31567383 C-394.65176758 181.31567383 -393.99176758 181.31567383 -393.31176758 181.31567383 C-392.97725586 180.50356445 -392.97725586 180.50356445 -392.63598633 179.67504883 C-390.88947874 176.5632772 -388.56352337 174.13682398 -386.12426758 171.56567383 C-385.59889404 171.00565674 -385.07352051 170.44563965 -384.53222656 169.86865234 C-383.39330713 168.65496796 -382.25269674 167.44286864 -381.1105957 166.23217773 C-379.27408309 164.27552409 -377.45544019 162.30350208 -375.63989258 160.32739258 C-368.36177071 152.43350992 -360.89326301 144.92262067 -352.90014648 137.75561523 C-351.28211954 136.28879647 -349.69082067 134.79740442 -348.10473633 133.29614258 C-341.07938948 126.66227478 -333.77029324 120.6038162 -326.11206055 114.7175293 C-324.28538036 113.29512658 -322.48519548 111.8448009 -320.69067383 110.38208008 C-290.60986937 85.86542443 -256.58933091 65.24980526 -221.2746582 49.21264648 C-218.67600421 48.02515211 -216.09467793 46.80223686 -213.51196289 45.58056641 C-199.36708325 38.91242281 -185.12388529 33.28933848 -170.31176758 28.31567383 C-168.76827637 27.79118652 -168.76827637 27.79118652 -167.19360352 27.25610352 C-134.80264222 16.29762992 -101.95014522 8.75187926 -68.06176758 4.12817383 C-66.92787598 3.97316406 -65.79398438 3.8181543 -64.62573242 3.65844727 C-60.85854057 3.16964414 -57.08741748 2.7324835 -53.31176758 2.31567383 C-52.54420135 2.22740326 -51.77663513 2.13913269 -50.98580933 2.04818726 C-34.00410102 0.1453073 -17.06389843 -0.02774559 0 0 Z " fill="#DD4814" transform="translate(996.311767578125,-0.315673828125)"/>
<path d="M0 0 C0 59.07 0 118.14 0 179 C14.85 174.71 29.7 170.42 45 166 C59.19875102 163.33773418 71.62599355 161.76357828 85.875 161.75 C86.60854706 161.74899292 87.34209412 161.74798584 88.09786987 161.74694824 C99.644301 161.75765557 110.71572208 162.44481189 122 165 C122.68223633 165.14453613 123.36447266 165.28907227 124.06738281 165.43798828 C150.72415987 171.12854849 173.18562738 183.30100597 193 202 C193.73734375 202.67289063 194.4746875 203.34578125 195.234375 204.0390625 C230.21968964 237.16345615 241.65143209 288.13480563 243.109375 334.4765625 C243.7460695 363.44616202 241.36977785 391.71267029 231 419 C230.75024414 419.66660645 230.50048828 420.33321289 230.24316406 421.02001953 C215.2915795 460.54015034 187.2695618 493.56291304 148.50683594 511.12988281 C135.41692322 516.7685372 121.99077626 520.39554069 108 523 C107.07710678 523.17295593 106.15421356 523.34591187 105.20335388 523.52410889 C96.39441701 525.03177805 87.72663008 525.32698859 78.81640625 525.3359375 C77.27017608 525.34239733 75.72394702 525.34912776 74.17771912 525.35610962 C70.9445413 525.36800994 67.71146961 525.37179897 64.47827148 525.37060547 C61.23129617 525.3704445 57.98489455 525.38408998 54.73803711 525.41162109 C20.38870972 525.69836581 -12.24363674 521.12177751 -45.75 513.375 C-47.02725952 513.08411499 -47.02725952 513.08411499 -48.33032227 512.78735352 C-53.6966253 511.50068332 -58.98531412 510.22310167 -62.8125 506 C-65.31363174 501.78756759 -65.14027607 497.81160263 -65.12584114 493.07319164 C-65.12729458 492.25266645 -65.12874802 491.43214126 -65.13024551 490.58675167 C-65.13391994 487.81352806 -65.13041239 485.04035891 -65.12698364 482.26713562 C-65.12813489 480.26829414 -65.12972245 478.26945288 -65.13171089 476.27061206 C-65.13590374 470.7592048 -65.13381369 465.24781474 -65.13072467 459.7364074 C-65.12847058 453.79968339 -65.13195026 447.86296243 -65.13470459 441.92623901 C-65.13890353 430.96137347 -65.13852652 419.99651306 -65.13579312 409.03164731 C-65.1332801 398.90133965 -65.13261967 388.771034 -65.13381577 378.64072609 C-65.13389215 377.96942487 -65.13396854 377.29812365 -65.13404724 376.60647997 C-65.13435856 373.8815919 -65.13467696 371.15670384 -65.135007 368.43181577 C-65.13806814 342.85350895 -65.13528934 317.27520565 -65.1299101 291.69689937 C-65.12516589 268.96533012 -65.12558752 246.23376647 -65.13037109 223.50219727 C-65.13572479 197.97596504 -65.13784944 172.44973593 -65.13475883 146.92350322 C-65.1344381 144.20257588 -65.13412526 141.48164855 -65.13381577 138.76072121 C-65.13373669 138.09073726 -65.13365761 137.42075332 -65.13357614 136.73046683 C-65.13243812 126.60787941 -65.13377 116.48529424 -65.13629532 106.36270714 C-65.13915262 94.85184239 -65.13834759 83.34098393 -65.13301457 71.83011993 C-65.13038214 65.95405377 -65.12936477 60.07799899 -65.13266373 54.20193291 C-65.13563614 48.82625213 -65.13401797 43.45059333 -65.12868617 38.07491455 C-65.12756603 36.12672754 -65.1281443 34.17853868 -65.13056196 32.23035284 C-65.13358999 29.5883192 -65.13049637 26.94636142 -65.12584114 24.30433178 C-65.12818231 23.54284386 -65.13052347 22.78135595 -65.13293558 21.99679264 C-65.11842346 17.89318571 -64.7986322 14.02611113 -64 10 C-51.46800759 7.27096241 -38.9115532 4.81506563 -26.26928711 2.65258789 C-23.51065878 2.17859249 -20.75443739 1.6918991 -17.99804688 1.20507812 C-16.22929906 0.90027243 -14.46042353 0.59620664 -12.69140625 0.29296875 C-11.87483047 0.14723923 -11.0582547 0.0015097 -10.2169342 -0.14863586 C-6.3260128 -0.80108395 -3.89035794 -0.97258948 0 0 Z M40.50146484 226.04980469 C37.92006957 227.03036202 35.33100516 227.98919219 32.74076843 228.94610596 C29.44913773 230.16428298 26.16189372 231.39411 22.875 232.625 C22.22749786 232.86669922 21.57999573 233.10839844 20.91287231 233.35742188 C19.04141403 234.05831724 17.17300003 234.76732437 15.3046875 235.4765625 C14.21140137 235.88986816 13.11811523 236.30317383 11.99169922 236.72900391 C6.16692261 239.20360706 3.56257391 241.03752188 0.83984613 246.72261047 C-0.56053811 250.51999703 -0.53846092 254.11482654 -0.48101807 258.12426758 C-0.48443577 259.00906673 -0.48785347 259.89386589 -0.49137473 260.80547714 C-0.49793126 263.75216456 -0.47601449 266.69792862 -0.45410156 269.64453125 C-0.4529726 271.76391071 -0.45360789 273.88329174 -0.45587158 276.00267029 C-0.45701776 281.74388668 -0.43352373 287.48476779 -0.40557575 293.22590637 C-0.38054621 299.2303395 -0.37821886 305.23478057 -0.37347412 311.23925781 C-0.36104895 322.6040493 -0.32823339 333.96868662 -0.28807616 345.33341026 C-0.24334431 358.27407752 -0.22136783 371.21475219 -0.20129442 384.15547752 C-0.15950048 410.77040378 -0.08915719 437.38519324 0 464 C4.45792339 464.41809389 8.91616551 464.83256897 13.37471008 465.24397278 C14.88523509 465.38383379 16.3956755 465.52461199 17.90602112 465.66639709 C31.26201264 466.91915399 44.58458873 467.72875327 58 468 C58.97565918 468.02191406 59.95131836 468.04382812 60.95654297 468.06640625 C88.93127243 468.62284045 115.43782905 464.14033291 137 445 C137.6703125 444.47148438 138.340625 443.94296875 139.03125 443.3984375 C160.49825567 426.10557182 171.13866633 396.06106338 174.43457031 369.49755859 C178.7024088 328.16435319 174.84393179 281.58323113 148 248 C147.30003906 247.05447266 147.30003906 247.05447266 146.5859375 246.08984375 C133.65560806 229.49214017 113.06923347 222.26454269 93.0546875 219.57421875 C75.34934809 217.44124454 57.17024932 219.7108027 40.50146484 226.04980469 Z " fill="#DD4814" transform="translate(434,1132)"/>
<path d="M0 0 C20.79 0 41.58 0 63 0 C64.14855218 34.45656525 64.14855218 34.45656525 64.28125 45.09667969 C64.29929687 46.34723145 64.31734375 47.5977832 64.3359375 48.88623047 C64.38341182 52.20999588 64.42844064 55.53378203 64.47232056 58.8575964 C64.52025183 62.43221693 64.57185045 66.00678486 64.62304688 69.58135986 C64.71960937 76.35604792 64.81354936 83.13076913 64.90624237 89.90551114 C65.01945062 98.17921418 65.13428574 106.45289414 65.25 114.7265625 C65.26543759 115.83049961 65.26543759 115.83049961 65.28118706 116.95673847 C65.48220698 131.31020661 65.69262934 145.66352521 65.91025829 160.01675081 C65.9788848 164.55646316 66.04445212 169.09621274 66.10888672 173.63598633 C66.19239228 179.46841065 66.28491344 185.30062288 66.38476562 191.13278961 C66.41919483 193.21895926 66.4507378 195.30517909 66.47900391 197.39144135 C66.68580342 212.44221782 67.2672919 227.29119324 71.375 241.875 C71.59559082 242.67744141 71.81618164 243.47988281 72.04345703 244.30664062 C76.91290586 261.64370934 85.41198239 277.10025629 101.30078125 286.5078125 C102.63689453 287.24644531 102.63689453 287.24644531 104 288 C104.69480469 288.38929688 105.38960937 288.77859375 106.10546875 289.1796875 C119.45349377 295.84079089 134.3902912 296.67782793 149 296.5 C149.86320862 296.49579041 150.72641724 296.49158081 151.61578369 296.48724365 C165.76504461 296.40746491 179.79620254 295.50322959 193.875 294.125 C194.7717041 294.03822998 195.6684082 293.95145996 196.59228516 293.86206055 C199.12298529 293.61104536 201.65144534 293.3448923 204.1796875 293.0703125 C204.9308786 292.99309967 205.6820697 292.91588684 206.45602417 292.83633423 C210.01331319 292.42434577 211.96307414 292.02461724 215 290 C215.45448871 287.82768764 215.45448871 287.82768764 215.37917423 285.26168823 C215.38739738 284.25572161 215.39562052 283.24975498 215.40409285 282.21330452 C215.39788103 281.09990133 215.39166922 279.98649815 215.38526917 278.83935547 C215.39050486 277.66299467 215.39574056 276.48663387 215.40113491 275.27462578 C215.41272594 271.99924702 215.4108368 268.7241868 215.40342176 265.44880581 C215.39869779 261.92045516 215.41123068 258.39216265 215.42178345 254.86383057 C215.43778624 248.74695301 215.44303174 242.63014174 215.44125557 236.51324463 C215.43887646 227.66699097 215.45483502 218.82084363 215.47570812 209.97461772 C215.50926267 195.62045602 215.5309061 181.26630381 215.54370117 166.91210938 C215.54485541 165.62264723 215.54485541 165.62264723 215.54603296 164.30713534 C215.54913541 160.8237442 215.55221823 157.34035303 215.555273 153.85696185 C215.5638035 144.26726911 215.57470369 134.67757965 215.58666992 125.08789062 C215.58773794 124.22929215 215.58880596 123.37069368 215.58990634 122.48607707 C215.6079783 108.18681227 215.63395904 93.88757012 215.66480106 79.58832741 C215.68338966 70.76075428 215.69427294 61.93323197 215.69532298 53.10563898 C215.69642377 47.06076828 215.70434574 41.01593246 215.71770663 34.97107649 C215.72514936 31.47923214 215.72919959 27.98746405 215.72458839 24.4956131 C215.72121441 20.71721005 215.72990839 16.93902596 215.74171448 13.16064453 C215.73773338 12.04724134 215.73375229 10.93383816 215.72965056 9.78669548 C215.73807365 8.27774554 215.73807365 8.27774554 215.74666691 6.73831177 C215.74731901 5.86527971 215.74797112 4.99224766 215.74864298 4.09276009 C216 2 216 2 218 0 C220.62550354 -0.24723816 220.62550354 -0.24723816 223.99438477 -0.24291992 C225.25231339 -0.24599655 226.510242 -0.24907318 227.80628967 -0.25224304 C229.18466372 -0.24534582 230.56303596 -0.23807889 231.94140625 -0.23046875 C233.3486273 -0.22927704 234.75584915 -0.22882377 236.16307068 -0.2290802 C239.11291479 -0.22751513 242.06263758 -0.21922299 245.01245117 -0.20581055 C248.80131829 -0.18880504 252.59005217 -0.18499663 256.37895298 -0.18575573 C259.28449281 -0.18548437 262.19000328 -0.18000893 265.09553337 -0.17275429 C266.49303909 -0.16956334 267.89054816 -0.16759922 269.28805733 -0.16686058 C271.23705357 -0.16470242 273.18603752 -0.15517313 275.13500977 -0.14526367 C276.24594498 -0.14145187 277.35688019 -0.13764008 278.5014801 -0.13371277 C281 0 281 0 282 1 C282.1009622 2.73871222 282.13107987 4.48156067 282.13422108 6.22319889 C282.13867892 7.3628101 282.14313676 8.5024213 282.14772969 9.67656618 C282.14745315 11.57835805 282.14745315 11.57835805 282.14717102 13.51856995 C282.1504678 14.86666706 282.15419297 16.21476319 282.1583125 17.56285805 C282.16836237 21.28487148 282.17205409 25.00686879 282.17470181 28.72889388 C282.1785962 32.73657206 282.1881753 36.74423736 282.19691467 40.75190735 C282.2167066 50.44089607 282.22675005 60.12988588 282.23564246 69.81888977 C282.24002206 74.37894964 282.24538983 78.93900835 282.25063133 83.49906731 C282.26764852 98.65447658 282.28214229 113.80988511 282.28938007 128.96530247 C282.29129006 132.90110335 282.29321037 136.83690422 282.29516602 140.77270508 C282.29564976 141.75096274 282.2961335 142.7292204 282.2966319 143.73712223 C282.30493057 159.58114665 282.33026254 175.42509553 282.36274669 191.26908696 C282.39580976 207.5277772 282.41382827 223.78642905 282.41702431 240.04515308 C282.41919042 249.17697035 282.42795345 258.30867757 282.45348549 267.44046211 C282.47518245 275.21874262 282.48324798 282.99688636 282.47351871 290.7751937 C282.46897068 294.74379586 282.47088907 298.71211578 282.49028015 302.68067932 C282.50788969 306.31606664 282.50693246 309.95096536 282.49138286 313.58635771 C282.48787865 315.5200038 282.50404988 317.45365489 282.52098733 319.38722998 C282.46375799 327.10948867 281.80128449 333.11817982 276.15625 338.8828125 C259.19020567 347.67319054 235.04592385 348.26415594 216.4375 351.1875 C215.46570801 351.3421875 214.49391602 351.496875 213.49267578 351.65625 C210.33244921 352.14009231 207.16904524 352.57767075 204 353 C202.04646606 353.26925293 202.04646606 353.26925293 200.0534668 353.54394531 C186.37735114 355.28518172 172.70364399 355.37229358 158.93286133 355.37060547 C154.96847123 355.37496593 151.00520922 355.41137794 147.04101562 355.44921875 C125.75164519 355.54213557 104.25096116 354.09177628 84 347 C82.93394531 346.63132812 81.86789062 346.26265625 80.76953125 345.8828125 C51.71969745 335.26244315 29.97422979 316.5194262 16 289 C8.64856644 272.38106776 4.22396131 254.72537825 2.375 236.6875 C2.25382813 235.59244141 2.13265625 234.49738281 2.0078125 233.36914062 C0.32121969 217.61233058 -0.14459039 202.0112211 -0.11352539 186.18164062 C-0.11324266 184.13989768 -0.11340293 182.09815463 -0.1139679 180.05641174 C-0.11425251 174.56372366 -0.1084105 169.07105782 -0.10139394 163.57837486 C-0.09510407 157.81954438 -0.09455217 152.06071327 -0.09336853 146.30187988 C-0.09027173 135.41908111 -0.08208077 124.53629249 -0.07201904 113.65349817 C-0.06080641 101.25433176 -0.05533452 88.85516484 -0.05032361 76.45599461 C-0.03989663 50.97065616 -0.02157186 25.48533162 0 0 Z " fill="#DD4814" transform="translate(740,1302)"/>
<path d="M0 0 C8.45767334 -0.02312659 16.91533356 -0.0409167 25.37303066 -0.05181217 C29.29988658 -0.05704031 33.22672094 -0.06413669 37.15356445 -0.07543945 C40.94014257 -0.0862708 44.7266999 -0.09227736 48.51329231 -0.09487724 C49.96104319 -0.09673105 51.40879288 -0.10035081 52.85653496 -0.10573006 C54.87757135 -0.11294367 56.89862848 -0.11340808 58.91967773 -0.11352539 C60.64842384 -0.11685631 60.64842384 -0.11685631 62.41209412 -0.12025452 C65 0 65 0 66 1 C66.10789848 3.4761872 66.15050319 5.92499209 66.15148926 8.40208435 C66.15572167 9.1865313 66.15995408 9.97097825 66.16431475 10.77919632 C66.17741307 13.42888984 66.18338242 16.07855321 66.18945312 18.72827148 C66.19739085 20.62037339 66.20577842 22.51247346 66.21458435 24.40457153 C66.23269042 28.49262905 66.24768954 32.58068236 66.26036072 36.6687603 C66.28056607 43.14696194 66.30822855 49.62511843 66.33703613 56.10328674 C66.39723042 69.88133651 66.44888132 83.65941408 66.5 97.4375 C66.55514089 112.25356901 66.61198771 127.06962409 66.67754889 141.88565117 C66.70569924 148.30919084 66.72936864 154.73272599 66.74947357 161.15629566 C66.76300186 165.18223584 66.7804067 169.20815296 66.79878426 173.23407364 C66.8064458 175.08256118 66.81255539 176.931056 66.81687737 178.77955437 C66.85492211 194.46007872 66.90393202 210.2308195 69.8125 225.6875 C69.98845703 226.65518311 70.16441406 227.62286621 70.34570312 228.61987305 C74.19446297 249.20080816 79.87268351 270.4128874 97.94140625 283.05859375 C112.32998722 292.31688965 127.70398022 296.34145379 144.75 296.75 C145.91684326 296.7823877 147.08368652 296.81477539 148.28588867 296.84814453 C170.70586276 297.35366477 195.44008144 297.18663952 217 290 C217.00173625 289.38886449 217.0034725 288.77772898 217.00526136 288.14807421 C217.10818301 251.96549431 217.21627236 215.78293331 217.33111694 179.60038922 C217.34488731 175.26052978 217.35861428 170.92067021 217.37231445 166.58081055 C217.37504276 165.71678519 217.37777106 164.85275983 217.38058204 163.96255188 C217.42471436 149.95350533 217.4653282 135.94445066 217.50465261 121.93538988 C217.54505016 107.57178496 217.58920358 93.20819517 217.63687855 78.84461254 C217.66620143 69.97419253 217.69255858 61.10377373 217.71517897 52.23333406 C217.73094902 46.15902025 217.75035148 40.08472497 217.77266841 34.01043171 C217.78545473 30.50052189 217.79658399 26.99062643 217.80341911 23.48069954 C217.81085355 19.68437762 217.82590862 15.88810869 217.84178162 12.09181213 C217.84275972 10.97024092 217.84373783 9.8486697 217.84474558 8.69311148 C217.85022002 7.68441911 217.85569446 6.67572674 217.8613348 5.63646793 C217.86399284 4.75893425 217.86665089 3.88140057 217.86938947 2.97727495 C218 1 218 1 219 0 C220.92761817 -0.09920863 222.85889354 -0.12799365 224.7890625 -0.12939453 C226.0270459 -0.13254669 227.2650293 -0.13569885 228.54052734 -0.13894653 C229.90201859 -0.13715675 231.26350951 -0.1351058 232.625 -0.1328125 C234.01123064 -0.13348559 235.39746117 -0.13445566 236.78369141 -0.13571167 C239.69239422 -0.1371884 242.60106637 -0.1350349 245.50976562 -0.13037109 C249.24596598 -0.12467381 252.98209452 -0.12795294 256.71829224 -0.13394356 C259.58179266 -0.13754985 262.44527593 -0.13641027 265.30877686 -0.13381577 C266.68674732 -0.13314668 268.06471932 -0.13397426 269.44268799 -0.13629532 C271.36543754 -0.13882292 273.28819252 -0.13429024 275.2109375 -0.12939453 C276.85521729 -0.12820114 276.85521729 -0.12820114 278.53271484 -0.12698364 C281 0 281 0 282 1 C283.33432969 7.62393047 283.14519349 14.28650191 283.14044189 21.01904297 C283.14489858 22.99296178 283.14489858 22.99296178 283.1494453 25.00675774 C283.15748469 28.6487387 283.15930314 32.29069993 283.16004276 35.93268871 C283.16189856 39.86457532 283.1694483 43.7964518 283.17617798 47.72833252 C283.18973784 56.31902172 283.19578174 64.90970624 283.20018864 73.50040436 C283.2029538 78.86499632 283.20719154 84.22958649 283.21169281 89.59417725 C283.22388008 104.45044847 283.23418198 119.30671827 283.2375679 134.16299438 C283.23778747 135.11305843 283.23800703 136.06312247 283.23823325 137.04197633 C283.23845153 137.99428467 283.23866981 138.94659301 283.2388947 139.92775917 C283.23933816 141.85743841 283.23978473 143.78711764 283.24023438 145.71679688 C283.2404558 146.67398015 283.24067723 147.63116342 283.24090537 148.61735225 C283.24485617 164.13832995 283.26232118 179.65926078 283.2855939 195.18022037 C283.30930063 211.11930256 283.32176936 227.05836121 283.32293582 242.99746132 C283.32385271 251.9452533 283.32960904 260.89298413 283.34775543 269.84075928 C283.36314692 277.45678052 283.36828234 285.07272168 283.36001733 292.68875551 C283.35610808 296.57419297 283.35705392 300.45946912 283.37107468 304.34488678 C283.38613561 308.55702701 283.37795576 312.76880299 283.36749268 316.98095703 C283.37957728 318.82253797 283.37957728 318.82253797 283.39190602 320.70132256 C283.35579655 326.90021006 283.09491038 331.56522601 280 337 C273.72802859 343.1446332 261.75493292 342.61990635 253.49609375 343.5859375 C252.31196899 343.72776962 251.12784424 343.86960175 249.90783691 344.01573181 C246.08484915 344.47276637 242.26122581 344.92418518 238.4375 345.375 C234.47441809 345.84520859 230.51143908 346.31627201 226.54847717 346.78749084 C223.94203939 347.09733915 221.33554354 347.40669933 218.72898865 347.71556091 C211.81485858 348.53687396 204.9047155 349.38035855 198 350.27734375 C184.45210988 352.02880113 170.94583219 353.42269213 157.3125 354.25 C156.63621552 354.29138092 155.95993103 354.33276184 155.26315308 354.37539673 C113.34472245 356.86864554 73.06699773 351.18738512 40.578125 322.890625 C17.06958566 300.71590349 7.46934839 268.96442691 4.41723633 237.61181641 C4.29322103 236.36709375 4.16920572 235.1223711 4.04143238 233.83992958 C2.72690005 220.04186777 1.98710657 206.22039002 1.41390824 192.37466097 C1.32207332 190.15917996 1.22746721 187.94382713 1.1327877 185.72846603 C-0.36309028 150.24468421 -0.36043677 114.76873636 -0.21608269 79.26002765 C-0.18142814 70.57676944 -0.16578266 61.89350016 -0.15097082 53.2101891 C-0.12032854 35.47337888 -0.06823297 17.73670495 0 0 Z " fill="#DD4814" transform="translate(0,1302)"/>
<path d="M0 0 C1.88700623 -0.00472824 1.88700623 -0.00472824 3.81213379 -0.009552 C5.19571975 -0.00776222 6.5793054 -0.00571127 7.96289062 -0.00341797 C9.37154151 -0.00409106 10.78019229 -0.00506112 12.18884277 -0.00631714 C15.14462385 -0.00779389 18.10037476 -0.0056403 21.05615234 -0.00097656 C24.85288647 0.00472073 28.64954991 0.0014416 32.44628143 -0.00454903 C35.35610491 -0.00815526 38.2659115 -0.00701577 41.17573547 -0.00442123 C42.57603463 -0.00375214 43.9763353 -0.00457979 45.37663269 -0.00690079 C47.33051526 -0.00942829 49.28440318 -0.0048958 51.23828125 0 C52.35223267 0.00079559 53.46618408 0.00159119 54.6138916 0.00241089 C57.11914062 0.12939453 57.11914062 0.12939453 58.11914062 1.12939453 C58.2133104 2.87746729 58.23656887 4.62938656 58.23266602 6.37998962 C58.23256027 8.0911219 58.23256027 8.0911219 58.23245239 9.83682251 C58.22470291 11.73336075 58.22470291 11.73336075 58.21679688 13.66821289 C58.21487819 15.00593511 58.21341416 16.34365804 58.21237183 17.68138123 C58.20919677 20.57929222 58.20290403 23.47717447 58.19430542 26.37507439 C58.18071054 31.01376495 58.17486825 35.65244602 58.17016602 40.29115295 C58.15718898 51.86129211 58.13310957 63.43140597 58.10876465 75.00152588 C57.96886087 124.16310466 57.96886087 124.16310466 58.49414062 173.32080078 C58.50951874 174.28743086 58.52489685 175.25406094 58.54074097 176.24998283 C58.85442256 195.06191144 59.60735743 214.14997783 63.36914062 232.62939453 C63.5845752 233.70979004 63.80000977 234.79018555 64.02197266 235.90332031 C68.02270593 255.02619622 75.3267274 273.03526246 91.59570312 284.94189453 C97.43736998 288.65088936 103.53738364 291.07166087 110.11914062 293.12939453 C110.95880371 293.40074219 111.7984668 293.67208984 112.66357422 293.95166016 C123.04832292 296.82167991 133.44590313 296.54757984 144.14379883 296.46557617 C147.38649004 296.44221974 150.62834087 296.44500254 153.87109375 296.45166016 C165.55988404 296.43467564 177.1157317 295.9927978 188.74983215 294.82502747 C193.84267443 294.32715062 198.85031311 294.08054176 203.97016907 294.10273743 C205.12605184 294.10658605 206.2819346 294.11043467 207.47284412 294.11439991 C208.34612197 294.11934813 209.21939981 294.12429636 210.11914062 294.12939453 C210.1187609 293.50979514 210.11838118 292.89019575 210.11798996 292.25182062 C210.09563507 255.56823344 210.07846581 218.88464726 210.0680753 182.20105467 C210.06682452 177.80111 210.0655302 173.40116535 210.06420898 169.0012207 C210.06381552 167.68723898 210.06381552 167.68723898 210.0634141 166.34671216 C210.05905713 152.14366023 210.05116943 137.94061232 210.04198783 123.73756278 C210.03265206 109.1750884 210.02708518 94.61261614 210.02505213 80.05013889 C210.02367674 71.05686991 210.0193253 62.06361231 210.01122416 53.07034682 C210.00595764 46.91194563 210.00433611 40.75355036 210.00563925 34.59514708 C210.00628278 31.03662214 210.00526345 27.47811715 209.99993515 23.91959572 C209.99421387 20.07074365 209.99613954 16.22191801 209.99888611 12.37306213 C209.99451685 10.66735962 209.99451685 10.66735962 209.99005932 8.92719847 C209.99205036 7.90457252 209.99404141 6.88194656 209.9960928 5.82833195 C209.99571308 4.93864721 209.99533336 4.04896248 209.99494213 3.1323176 C210.11914062 1.12939453 210.11914062 1.12939453 211.11914062 0.12939453 C213.0773876 0.0301368 215.0392396 0.00140039 217 0 C218.25800415 -0.00315216 219.5160083 -0.00630432 220.81213379 -0.009552 C222.19571975 -0.00776222 223.5793054 -0.00571127 224.96289062 -0.00341797 C226.37154151 -0.00409106 227.78019229 -0.00506112 229.18884277 -0.00631714 C232.14462385 -0.00779389 235.10037476 -0.0056403 238.05615234 -0.00097656 C241.85288647 0.00472073 245.64954991 0.0014416 249.44628143 -0.00454903 C252.35610491 -0.00815526 255.2659115 -0.00701577 258.17573547 -0.00442123 C259.57603463 -0.00375214 260.9763353 -0.00457979 262.37663269 -0.00690079 C264.33051526 -0.00942829 266.28440318 -0.0048958 268.23828125 0 C269.35223267 0.00079559 270.46618408 0.00159119 271.6138916 0.00241089 C274.11914062 0.12939453 274.11914062 0.12939453 275.11914062 1.12939453 C275.22104972 2.89079181 275.25206304 4.65631139 275.25615501 6.42064953 C275.26376683 8.15281681 275.26376683 8.15281681 275.27153242 9.91997737 C275.27203017 11.20476664 275.27252793 12.48955592 275.27304077 13.8132782 C275.27705281 15.1793001 275.2814906 16.5453208 275.28632033 17.91134006 C275.2983208 21.68281867 275.3039423 25.45428448 275.30850148 29.22577846 C275.31444456 33.2865902 275.32605771 37.34738651 275.33679199 41.40818787 C275.36134724 51.22471278 275.37594847 61.04124282 275.38885206 70.85778901 C275.39256196 73.62903825 275.39653536 76.40028699 275.40060472 79.17153573 C275.42584109 96.36866111 275.44790134 113.56578724 275.46033287 130.76292706 C275.46326273 134.74893382 275.46622437 138.73494056 275.46923828 142.72094727 C275.46998433 143.71169201 275.47073038 144.70243675 275.47149904 145.72320405 C275.48415475 161.77552644 275.5173786 177.82773811 275.55904011 193.88000872 C275.60143346 210.34887083 275.62502497 226.81767624 275.63025343 243.28659278 C275.63367071 252.53798173 275.64546279 261.78919773 275.67835617 271.04053307 C275.7063223 278.91916629 275.71737124 286.79759114 275.70616071 294.67627015 C275.700965 298.69734104 275.70391928 302.71797535 275.72862625 306.73898315 C275.75105557 310.41999476 275.75042906 314.10025461 275.73142238 317.78127883 C275.72728225 319.74425349 275.7478149 321.70723224 275.76920927 323.67009467 C275.68296144 333.19735823 275.68296144 333.19735823 272.80762672 336.8659029 C269.50159728 339.64931695 266.35686649 340.77242044 262.23242188 341.74658203 C261.45079178 341.94653778 260.66916168 342.14649353 259.86384583 342.35250854 C249.7838867 344.84292181 239.5460821 346.57012069 229.30664062 348.25439453 C228.26625641 348.42648437 227.22587219 348.59857422 226.15396118 348.77587891 C220.01121299 349.78701347 213.86446822 350.76930971 207.71289062 351.72521973 C205.49439168 352.0709205 203.27735362 352.42442824 201.06054688 352.78076172 C183.14848505 355.55579764 165.07835487 355.45602294 146.99414062 355.56689453 C145.76931976 355.57938232 144.5444989 355.59187012 143.28256226 355.60473633 C102.97913297 355.94234537 62.41260669 349.23057017 32.28662109 320.44360352 C8.27768107 296.66286091 -1.25631039 264.21703258 -4.56835938 231.44189453 C-4.68759766 230.30671387 -4.80683594 229.1715332 -4.9296875 228.00195312 C-7.54543844 199.86751058 -7.03432882 171.39265102 -7.01518488 143.16662526 C-7.01260508 138.15441289 -7.01501299 133.14220209 -7.01657104 128.12998962 C-7.01837147 119.75714785 -7.01603763 111.38431502 -7.01123047 103.01147461 C-7.00573644 93.33032915 -7.00759577 83.64920459 -7.01305687 73.9680596 C-7.01758351 65.60738129 -7.01824243 57.24670928 -7.01561821 48.88603014 C-7.01406 43.91158131 -7.01385031 38.93714236 -7.01715469 33.96269417 C-7.02002866 29.3158449 -7.01806666 24.66902303 -7.01226044 20.02217674 C-7.01093264 18.31487193 -7.01132728 16.60756484 -7.0135231 14.90026093 C-7.01623244 12.58138915 -7.01285687 10.26260682 -7.00784302 7.94374084 C-7.00746599 6.64409425 -7.00708897 5.34444765 -7.00670052 4.00541782 C-6.78479702 -1.06605266 -4.5366335 0.0032401 0 0 Z " fill="#DD4814" transform="translate(1724.880859375,1301.87060546875)"/>
<path d="M0 0 C1.54905029 -0.00939606 1.54905029 -0.00939606 3.12939453 -0.01898193 C18.37793258 -0.07764419 33.1690493 1.23214497 48.25 3.4375 C49.06653549 3.55276031 49.88307098 3.66802063 50.72434998 3.78677368 C80.09454452 7.9343654 108.06228424 20.94402531 126.59936523 44.74707031 C132.59556567 52.78659859 137.1297051 61.31608706 141.25 70.4375 C141.65863281 71.32953125 142.06726562 72.2215625 142.48828125 73.140625 C150.9229292 92.81061481 153.11737218 115.24645281 154.35498047 136.38232422 C154.39731237 137.09434046 154.43964427 137.80635669 154.48325896 138.53994918 C155.64836939 158.7686427 155.50769268 179.0162192 155.45278788 199.27071238 C155.44005338 204.78519572 155.43909253 210.29968269 155.43673706 215.81417847 C155.43058758 226.19702858 155.41426793 236.5798352 155.39403808 246.96266639 C155.37147223 258.80844704 155.36063433 270.65423006 155.35064721 282.50002694 C155.3298937 306.81254182 155.29484881 331.12501844 155.25 355.4375 C146.92271053 355.46062684 138.59543437 355.47841683 130.26812077 355.48931217 C126.40179882 355.49454026 122.53549879 355.50163654 118.66918945 355.51293945 C114.94096599 355.523771 111.21276366 355.5297774 107.48452568 355.53237724 C106.05910344 355.53423101 104.63368241 355.53785071 103.20826912 355.54323006 C101.21836592 355.55044393 99.22844166 355.55090808 97.23852539 355.55102539 C96.10379288 355.553246 94.96906036 355.55546661 93.79994202 355.55775452 C91.25 355.4375 91.25 355.4375 90.25 354.4375 C90.14498478 352.16796707 90.11197876 349.89510494 90.10523987 347.62315369 C90.10171302 346.90167084 90.09818618 346.18018799 90.09455246 345.43684202 C90.08381034 342.99947365 90.08017449 340.56214429 90.07641602 338.12475586 C90.07011339 336.38344659 90.06334792 334.64213894 90.05615234 332.90083313 C90.04143907 329.13529229 90.02973035 325.36975785 90.02020454 321.60420036 C90.0047319 315.61782324 89.98076958 309.63149874 89.95530701 303.64515686 C89.88420085 286.61527867 89.82490314 269.58536752 89.77319336 252.55541992 C89.74459137 243.16079907 89.70903415 233.7662278 89.66653961 224.37165934 C89.64445101 219.41308975 89.62581336 214.454565 89.61609077 209.49595451 C89.56910356 186.39066188 89.01481066 163.48043062 87.25 140.4375 C87.04112413 137.50422442 86.83437312 134.57081187 86.62909794 131.63728237 C85.19595077 113.31297947 81.00333117 89.12742821 66.25 76.4375 C35.79397195 51.80315519 -9.33358347 58.39952372 -45.68261719 62.04858398 C-51.03397693 62.56027162 -56.39280178 62.99106682 -61.75 63.4375 C-61.75 159.7975 -61.75 256.1575 -61.75 355.4375 C-82.87 355.4375 -103.99 355.4375 -125.75 355.4375 C-125.75 243.8975 -125.75 132.3575 -125.75 17.4375 C-104.37789103 12.45067457 -83.36880676 7.74198601 -61.75 4.4375 C-61.05297974 4.32988342 -60.35595947 4.22226685 -59.63781738 4.11138916 C-39.7748058 1.07687497 -20.08837059 0.05671922 0 0 Z " fill="#DD4814" transform="translate(1234.75,1293.5625)"/>
<path d="M0 0 C1.72704978 0.01897116 3.45410066 0.03784273 5.18115234 0.05664062 C6.17032654 0.07090088 7.15950073 0.08516113 8.1786499 0.09985352 C11.9350022 0.14569533 15.69118326 0.16388153 19.44775391 0.17773438 C26.21770729 0.20424606 32.98712471 0.25555588 39.75677681 0.32456207 C43.71474382 0.36433996 47.67247101 0.39642996 51.63061523 0.41162109 C55.51721448 0.42678144 59.40321086 0.4611486 63.28954124 0.50893402 C64.75543179 0.52368099 66.22140774 0.53166215 67.68737221 0.53250885 C69.72698827 0.53488017 71.76651842 0.56425341 73.8059082 0.59472656 C74.96105423 0.60360901 76.11620026 0.61249146 77.30635071 0.62164307 C81.2237877 1.25437409 83.42961667 2.69609502 86.51953125 5.140625 C90.24542603 12.59241456 86.56524291 24.1190564 85.20703125 31.828125 C84.9728934 33.18068792 84.73909008 34.5333088 84.50561523 35.88598633 C83.85453258 39.63949192 83.18653853 43.38991741 82.51953125 47.140625 C82.25608675 48.68221933 81.99297204 50.22387013 81.73046875 51.765625 C80.0398224 61.0539953 77.24555452 69.91220343 74.27490234 78.85546875 C73.56663739 80.99811903 72.87761324 83.14584031 72.1953125 85.296875 C69.7795971 92.84811046 66.94362033 99.99509174 63.51953125 107.140625 C62.89763316 108.51597655 62.27803071 109.8923674 61.66015625 111.26953125 C52.74774013 130.91412139 41.5981954 149.00525814 28.51953125 166.140625 C27.76800781 167.12546875 27.01648437 168.1103125 26.2421875 169.125 C22.26948225 174.19118254 18.03215837 178.98979474 13.6953125 183.74609375 C11.09411967 186.60880687 8.55653673 189.52293026 6.02734375 192.44921875 C2.17382788 196.7719451 -0.71734091 198.8221565 -6.7421875 199.33203125 C-10.99616343 199.43220337 -14.78908122 199.09083293 -18.9375 198.15234375 C-44.44514601 192.88060597 -70.02708609 198.17333228 -91.63671875 212.1875 C-94.32573199 214.09344894 -96.91296318 216.07481592 -99.48046875 218.140625 C-100.17269531 218.66914062 -100.86492187 219.19765625 -101.578125 219.7421875 C-115.23124001 230.76239564 -123.15883578 246.76963959 -129.6484375 262.65234375 C-130.11902588 263.79582275 -130.11902588 263.79582275 -130.59912109 264.96240234 C-131.15469383 266.33548266 -131.69388812 267.71541354 -132.20947266 269.10400391 C-133.90978328 273.5114664 -135.67946183 276.30946263 -139.48046875 279.140625 C-143.23836284 280.54525992 -147.06479318 281.41427563 -150.98046875 282.265625 C-152.64094238 282.64400513 -152.64094238 282.64400513 -154.33496094 283.0300293 C-209.9002878 295.33059872 -268.32003438 291.21153475 -321.48046875 271.140625 C-322.44855469 270.78226563 -323.41664063 270.42390625 -324.4140625 270.0546875 C-329.45842731 268.11645866 -334.37650573 265.88005176 -339.29296875 263.640625 C-339.92823486 263.35574219 -340.56350098 263.07085938 -341.21801758 262.77734375 C-345.08328745 260.98463619 -348.26580837 258.93278716 -351.48046875 256.140625 C-350.93879644 251.62682801 -349.79542639 248.40283337 -347.55859375 244.45703125 C-346.95208984 243.37679687 -346.34558594 242.2965625 -345.72070312 241.18359375 C-345.05744681 240.0233488 -344.39403128 238.86319485 -343.73046875 237.703125 C-343.04540627 236.49004475 -342.36117275 235.276496 -341.67773438 234.0625 C-339.94644212 230.99177114 -338.20518643 227.92683072 -336.46069336 224.86358643 C-335.00891203 222.31175983 -333.56493287 219.7555455 -332.12109375 217.19921875 C-330.55560809 214.42763814 -328.98945131 211.65646741 -327.41943359 208.88745117 C-322.36094005 199.9600114 -317.38256227 190.9885824 -312.41601562 182.00976562 C-311.81595703 180.92630859 -311.21589844 179.84285156 -310.59765625 178.7265625 C-310.06769043 177.7679834 -309.53772461 176.8094043 -308.99169922 175.82177734 C-308.49299316 174.93699707 -307.99428711 174.0522168 -307.48046875 173.140625 C-306.71500732 171.74408691 -306.71500732 171.74408691 -305.93408203 170.31933594 C-305.45438965 169.60036133 -304.97469727 168.88138672 -304.48046875 168.140625 C-300.60582119 167.41412858 -297.96133653 168.61842864 -294.48046875 170.265625 C-281.51373188 175.86346019 -267.63311852 179.03671958 -253.85546875 181.953125 C-252.88512695 182.16001953 -251.91478516 182.36691406 -250.91503906 182.58007812 C-239.25832143 184.95378065 -227.66159379 185.40843236 -215.79296875 185.453125 C-215.07446747 185.45640808 -214.35596619 185.45969116 -213.61569214 185.46307373 C-201.14307838 185.48138152 -189.21620421 184.25582191 -176.9909668 181.67041016 C-174.449214 181.13402938 -171.90026557 180.65355465 -169.34765625 180.171875 C-164.79329295 179.25787526 -160.43754998 178.01212532 -156.04296875 176.515625 C-155.27855469 176.25620117 -154.51414062 175.99677734 -153.7265625 175.72949219 C-100.9527246 157.44344331 -58.65222909 120.91567025 -34.05004883 70.61035156 C-26.49650677 54.81927751 -20.41101279 37.15825996 -17.8125 19.80859375 C-17.69414795 19.04756348 -17.5757959 18.2865332 -17.45385742 17.50244141 C-17.22754914 16.00883846 -17.01959659 14.51229696 -16.83325195 13.01318359 C-16.05761034 7.85229968 -14.48594277 5.42608179 -10.48046875 2.140625 C-6.81813546 -0.30093052 -4.22508878 -0.08981356 0 0 Z " fill="#FEFEFD" transform="translate(1216.48046875,539.859375)"/>
<path d="M0 0 C1.15285995 -0.01248276 2.30571991 -0.02496552 3.49351501 -0.03782654 C51.52514338 -0.45736164 51.52514338 -0.45736164 74.12109375 5.2734375 C75.41611816 5.58571289 75.41611816 5.58571289 76.73730469 5.90429688 C84.55427583 7.83897375 92.60451175 10.04802094 98.12109375 16.2734375 C99.4397993 18.71548482 100.26817162 20.68559422 101.12109375 23.2734375 C106.60338936 37.45031129 112.99617192 49.85597245 123.12109375 61.2734375 C123.745 62.05203125 124.36890625 62.830625 125.01171875 63.6328125 C138.03768188 79.50478438 160.22840309 90.01487064 180.46459961 92.08374023 C185.84563789 92.46799414 191.22868973 92.45797138 196.62109375 92.4609375 C197.79285156 92.47318359 198.96460938 92.48542969 200.171875 92.49804688 C206.09796772 92.50802346 211.49062139 92.21582353 217.23486328 90.73852539 C219.77056682 90.11329691 222.2018308 89.93740257 224.80859375 89.8984375 C225.67871094 89.87007813 226.54882812 89.84171875 227.4453125 89.8125 C233.54048539 90.86247139 237.81180747 95.63452898 241.99609375 99.8984375 C242.78306641 100.69556152 242.78306641 100.69556152 243.5859375 101.50878906 C248.12723124 106.17003098 252.20109479 111.07817085 256.12109375 116.2734375 C257.04379236 117.46781771 257.96700767 118.66179885 258.890625 119.85546875 C278.11014044 144.8811726 294.67252854 172.89569866 304.38671875 203.03369141 C305.21388407 205.55643565 306.08722295 208.06078088 306.96484375 210.56640625 C312.6445336 226.92014587 312.6445336 226.92014587 313.68530273 235.39428711 C314.12300591 238.2860706 314.79601115 241.00308362 315.5625 243.82421875 C317.17339457 250.14496512 318.07899052 256.4237072 318.80859375 262.8984375 C318.93814453 263.95289063 319.06769531 265.00734375 319.20117188 266.09375 C321.10064812 282.33477439 321.10064812 282.33477439 319.12109375 288.2734375 C307.37721565 288.45065715 295.63323715 288.61659489 283.88899899 288.76821327 C278.43542453 288.83897182 272.98196011 288.91358537 267.52856445 288.99707031 C262.26373571 289.07752566 256.99885982 289.14777446 251.73379707 289.21100998 C249.72715823 289.23689239 247.72056297 289.26642471 245.71403313 289.29970169 C242.89914699 289.34575539 240.08438415 289.37871709 237.26928711 289.40869141 C236.44353683 289.4252327 235.61778656 289.44177399 234.76701355 289.45881653 C228.83944984 289.50212641 223.31373786 289.31259652 218.77734375 285.09375 C216.8012914 281.72886841 216.22257279 279.00265189 215.62109375 275.1484375 C215.38223465 273.72361716 215.14125556 272.299151 214.8984375 270.875 C214.7125708 269.75399902 214.7125708 269.75399902 214.52294922 268.61035156 C212.57345779 257.27345486 210.25063192 246.03479905 206.12109375 235.2734375 C205.76402344 234.33886719 205.40695312 233.40429688 205.0390625 232.44140625 C197.3490357 213.22919883 187.2324659 195.28256112 174.12109375 179.2734375 C173.43490967 178.42483154 173.43490967 178.42483154 172.73486328 177.55908203 C153.56224008 153.96352619 129.33958634 136.34594166 102.02392578 123.20874023 C100.76917831 122.59199176 99.52473357 121.95375978 98.29248047 121.29321289 C92.39443805 118.16555566 86.23043045 116.19679535 79.87109375 114.2109375 C78.81535156 113.87255859 77.75960938 113.53417969 76.671875 113.18554688 C44.64504485 103.05221077 2.51612654 97.81932334 -29.87890625 109.2734375 C-31.44322042 109.59386428 -33.01147871 109.89529383 -34.58203125 110.18359375 C-40.09820512 111.2424099 -45.31858566 112.90112491 -50.62890625 114.7109375 C-51.53511719 115.01064453 -52.44132813 115.31035156 -53.375 115.61914062 C-57.14898968 116.88907438 -60.66345361 118.161918 -64.20703125 119.99609375 C-67.08149561 121.37028943 -68.75117655 121.38046634 -71.87890625 121.2734375 C-72.20463623 120.66685303 -72.53036621 120.06026855 -72.8659668 119.43530273 C-79.40512662 107.2728989 -86.022446 95.163497 -92.84692383 83.15869141 C-97.8259204 74.39404238 -102.71862896 65.58258833 -107.59130859 56.75854492 C-111.14226679 50.34295228 -114.7898575 44.00792084 -118.59814453 37.7409668 C-119.87890625 35.2734375 -119.87890625 35.2734375 -119.87890625 32.2734375 C-117.86018353 31.16541676 -115.83882 30.06220677 -113.81640625 28.9609375 C-112.12837891 28.03861328 -112.12837891 28.03861328 -110.40625 27.09765625 C-106.95020154 25.31030893 -103.47146978 23.76461404 -99.87890625 22.2734375 C-98.3165625 21.60054687 -98.3165625 21.60054687 -96.72265625 20.9140625 C-72.59979016 10.88165558 -47.12288731 4.84389461 -21.25219727 1.58300781 C-19.44239035 1.34693795 -17.63893157 1.06166162 -15.83984375 0.75439453 C-10.55376975 0.11253274 -5.32079104 0.05230175 0 0 Z " fill="#FEFEFD" transform="translate(983.87890625,217.7265625)"/>
<path d="M0 0 C3.36486969 1.38832163 4.7790395 2.73327767 6.59375 5.8671875 C7.29371094 7.05634766 7.29371094 7.05634766 8.0078125 8.26953125 C8.50023437 9.12933594 8.99265625 9.98914063 9.5 10.875 C10.57264251 12.70588981 11.64556694 14.53661448 12.71875 16.3671875 C13.26402344 17.30530273 13.80929687 18.24341797 14.37109375 19.20996094 C16.8741979 23.49735215 19.4378406 27.74773512 22 32 C23.00168614 33.66773814 24.00298711 35.33570768 25.00390625 37.00390625 C25.49906738 37.82906738 25.99422852 38.65422852 26.50439453 39.50439453 C27.99380814 41.98966811 29.47976324 44.47697891 30.96484375 46.96484375 C31.45573486 47.785896 31.94662598 48.60694824 32.45239258 49.45288086 C33.43685233 51.09990484 34.41978114 52.74784494 35.40112305 54.39672852 C38.0907251 58.89535274 40.84395558 63.34181996 43.6796875 67.75 C44.28562744 68.70011963 44.89156738 69.65023926 45.51586914 70.62915039 C46.69004375 72.46452619 47.87627663 74.29225811 49.07592773 76.11108398 C49.60387939 76.93938721 50.13183105 77.76769043 50.67578125 78.62109375 C51.14927002 79.3473999 51.62275879 80.07370605 52.1105957 80.82202148 C53.25704485 83.62945294 52.92718037 85.14921753 52 88 C50.13671875 89.8515625 50.13671875 89.8515625 47.6875 91.625 C41.4308658 96.37968651 35.69851545 101.60354473 30 107 C29.21254395 107.73645752 29.21254395 107.73645752 28.40917969 108.48779297 C4.85553079 130.62936979 -11.10592857 158.80265418 -22 189 C-22.39058594 190.0621875 -22.78117188 191.124375 -23.18359375 192.21875 C-26.76620191 202.81323327 -28.3013438 213.97671551 -30 225 C-30.19722656 226.22074219 -30.39445313 227.44148437 -30.59765625 228.69921875 C-31.38816002 235.42234648 -31.24206118 242.23889878 -31.25 249 C-31.25167175 249.75033508 -31.25334351 250.50067017 -31.25506592 251.27374268 C-31.25674687 263.91549219 -30.36902308 276.21968506 -28.35839844 288.71630859 C-28.0623517 290.60269904 -27.82416199 292.49807085 -27.6015625 294.39453125 C-23.36467253 328.05426825 -3.13319646 364.02170456 19 389 C19.71285156 389.82113281 20.42570313 390.64226562 21.16015625 391.48828125 C35.79753884 408.30721661 35.79753884 408.30721661 54 421 C53.3282935 424.67670926 51.73525383 427.40302495 49.82421875 430.59375 C48.83856934 432.2478186 48.83856934 432.2478186 47.83300781 433.93530273 C47.11795513 435.12360532 46.40278314 436.31183612 45.6875 437.5 C44.9549657 438.72508003 44.22287316 439.95042432 43.49121094 441.17602539 C41.6671987 444.22875133 39.83742938 447.27797622 38.0055542 450.32598877 C36.56465998 452.72473875 35.12806922 455.12605783 33.69140625 457.52734375 C31.27940139 461.55600549 28.86064751 465.58056615 26.43994141 469.60400391 C24.95070562 472.08202357 23.4651179 474.56219866 21.98046875 477.04296875 C15.38138342 488.06644084 8.71871104 499.04903004 2 510 C-2.43882204 508.55840092 -5.5036418 506.11264856 -8.9375 503.0625 C-12.92673215 499.59347834 -16.94941008 496.2206688 -21.14868164 493.00830078 C-29.6125805 486.53259822 -37.34996648 479.41034579 -45 472 C-45.6197168 471.40219727 -46.23943359 470.80439453 -46.87792969 470.18847656 C-54.45311486 462.85137998 -61.57600483 455.38232741 -68 447 C-68.54769043 446.29633301 -69.09538086 445.59266602 -69.65966797 444.86767578 C-78.60159357 433.35800765 -86.77604792 421.65992457 -94 409 C-94.74443359 407.70425049 -94.74443359 407.70425049 -95.50390625 406.38232422 C-102.2643272 394.54099793 -108.23531739 382.60333513 -113.24072266 369.91796875 C-113.87599254 368.31324842 -114.53480039 366.71787269 -115.19921875 365.125 C-116.18107331 362.76544438 -117.09937896 360.39169073 -118 358 C-118.44472656 356.865625 -118.88945313 355.73125 -119.34765625 354.5625 C-122.70146343 345.64758023 -125.81101582 335.69532859 -121.92578125 326.44140625 C-118.87815505 321.62365195 -114.83339069 317.57466632 -111.01171875 313.3671875 C-92.74513819 291.87291989 -89.2375187 265.14458308 -91 238 C-93.50945118 219.48694213 -104.64264364 202.51490972 -116.16796875 188.3671875 C-121.47063499 181.51555479 -123.36737401 176.59626951 -122.640625 167.98046875 C-117.05710576 126.53438323 -86.56259316 82.43619888 -59.11328125 52.33203125 C-57.22623463 50.24965264 -55.38941767 48.13496936 -53.5625 46 C-46.94147069 38.41340392 -39.6702653 31.50892231 -32 25 C-31.1028125 24.21367187 -30.205625 23.42734375 -29.28125 22.6171875 C-19.95008471 14.49919442 -10.02178446 7.23751349 0 0 Z " fill="#FEFEFD" transform="translate(830,269)"/>
<path d="M0 0 C0 34.98 0 69.96 0 106 C42.9 106 85.8 106 130 106 C130 124.15 130 142.3 130 161 C87.43 161 44.86 161 1 161 C0.91250815 192.5283091 0.91250815 192.5283091 0.85351562 224.05664062 C0.83575757 236.92524834 0.81495181 249.79379685 0.77368164 262.66235352 C0.74363105 272.03703173 0.72439009 281.41166162 0.71773452 290.78638667 C0.7138486 295.74293962 0.70481842 300.69935445 0.68280983 305.65586281 C0.66219627 310.3368572 0.6562155 315.01765875 0.66067696 319.69869423 C0.65986272 321.40164748 0.65404706 323.10460831 0.64238358 324.80752182 C0.50234061 346.34077549 2.92364513 370.60014095 16.3125 388.375 C19.87230459 391.85201844 23.78217407 394.39007456 28 397 C29.2065625 397.8353125 29.2065625 397.8353125 30.4375 398.6875 C58.06761768 412.83951149 95.00092908 401.48027484 122.59082031 392.87988281 C123.38584961 392.63463867 124.18087891 392.38939453 125 392.13671875 C125.70125 391.91717529 126.4025 391.69763184 127.125 391.47143555 C129 391 129 391 132 391 C132.28721924 392.09352783 132.57443848 393.18705566 132.87036133 394.3137207 C133.94894588 398.41965094 135.02820985 402.52540235 136.10766602 406.63110352 C136.572366 408.3989594 137.03688834 410.16686198 137.5012207 411.93481445 C138.17350885 414.49443035 138.84644894 417.05387408 139.51953125 419.61328125 C139.73642609 420.43941925 139.95332092 421.26555725 140.17678833 422.11672974 C141.57358862 427.42411661 143.01454739 432.71686368 144.52612305 437.99291992 C145 440 145 440 145 443 C132.43357749 448.93476841 119.33067157 453.14149647 106 457 C105.08041504 457.27827637 104.16083008 457.55655273 103.21337891 457.84326172 C87.71150496 462.37186711 72.15107333 462.49440054 56.125 462.5625 C55.07618652 462.57144287 54.02737305 462.58038574 52.94677734 462.58959961 C24.12415547 462.75410715 -8.63872281 456.56111725 -31 437 C-31 436.34 -31 435.68 -31 435 C-32.32 434.34 -33.64 433.68 -35 433 C-35 432.34 -35 431.68 -35 431 C-35.66 431 -36.32 431 -37 431 C-57.53379219 406.63723742 -62.12953777 375.49077039 -64.09611511 344.62538147 C-64.13850731 343.96455868 -64.18089951 343.30373588 -64.22457632 342.62288816 C-65.15394706 327.84765463 -65.29482344 313.08273997 -65.27610838 298.2815932 C-65.27358051 294.51169817 -65.28272687 290.74182525 -65.29014587 286.97193909 C-65.30271996 279.64216056 -65.30470959 272.31241894 -65.30234561 264.98263144 C-65.3005468 259.02708834 -65.30234504 253.07155627 -65.30657005 247.11601448 C-65.30716524 246.26158502 -65.30776043 245.40715556 -65.30837366 244.5268343 C-65.30958559 242.79024624 -65.31079973 241.05365819 -65.31201603 239.31707013 C-65.3228193 223.14244163 -65.32076039 206.96783413 -65.31463119 190.79320449 C-65.30943759 176.00379007 -65.32079428 161.21444101 -65.33972941 146.42503952 C-65.35909103 131.1846757 -65.36736871 115.94434288 -65.36360615 100.70396668 C-65.36169552 92.16848686 -65.36417082 83.63306304 -65.37832069 75.09759331 C-65.39021208 67.85285365 -65.39166264 60.60820473 -65.37953053 53.36346387 C-65.37363336 49.6703851 -65.37256653 45.97747255 -65.38453293 42.28440475 C-65.3973476 38.28337835 -65.38695177 34.28274957 -65.3742218 30.28172302 C-65.38159609 29.11415181 -65.38897037 27.9465806 -65.39656812 26.74362844 C-65.34944252 19.72906598 -64.83685542 14.93299898 -59.7668457 9.69116211 C-56.32225429 7.58574565 -53.74426814 7.29229384 -49.73046875 6.94140625 C-48.2982385 6.7973131 -46.86643761 6.64889897 -45.43505859 6.49658203 C-44.70172302 6.41982239 -43.96838745 6.34306274 -43.21282959 6.26397705 C-39.65064034 5.83902964 -36.13679917 5.19536439 -32.61328125 4.52734375 C-31.92813446 4.39800446 -31.24298767 4.26866516 -30.53707886 4.13540649 C-28.46145885 3.73996159 -26.38697968 3.33887888 -24.3125 2.9375 C-22.88615455 2.66555972 -21.45972234 2.39407412 -20.03320312 2.12304688 C-13.1517799 0.84833706 -13.1517799 0.84833706 -6.31713867 -0.64624023 C-4 -1 -4 -1 0 0 Z " fill="#DD4814" transform="translate(1533,1195)"/>
<path d="M0 0 C0.67289063 0.18304687 1.34578125 0.36609375 2.0390625 0.5546875 C19.40075071 5.66849385 36.03497051 16.92639723 45.07470703 32.89892578 C54.16054559 49.77149087 58.9713259 68.84576375 54.25732422 88.02099609 C50.56433944 99.17597687 44.79400391 109.21904587 37 118 C36.46246094 118.64582031 35.92492188 119.29164063 35.37109375 119.95703125 C24.94622571 131.5315088 7.602273 140.09868938 -7.87084961 141.20532227 C-11.02064953 141.30374565 -14.16124445 141.32205505 -17.3125 141.3125 C-18.36373047 141.32861328 -19.41496094 141.34472656 -20.49804688 141.36132812 C-39.13701332 141.37278416 -54.86005276 133.83050426 -68.109375 120.94921875 C-84.19429255 103.89795926 -88.72438725 85.34907713 -88.13623047 62.73974609 C-87.44292238 48.79655008 -81.55837912 35.84537814 -73 25 C-72.39285156 24.22785156 -71.78570313 23.45570313 -71.16015625 22.66015625 C-54.601506 2.85072804 -25.21785818 -8.13147264 0 0 Z " fill="#FEFDFD" transform="translate(1195,762)"/>
<path d="M0 0 C1.11955078 0.27457031 1.11955078 0.27457031 2.26171875 0.5546875 C15.03020427 4.26832243 24.82745564 11.73031826 34 21 C34.59425781 21.57234375 35.18851563 22.1446875 35.80078125 22.734375 C49.33295599 36.88662244 52.64821676 56.18495769 52.3359375 74.93359375 C52.13522388 79.5547652 51.30106239 83.56328365 50 88 C49.71640625 88.99644531 49.4328125 89.99289062 49.140625 91.01953125 C43.06695974 110.06633238 31.08321804 124.18414156 13.5 133.6875 C-3.58471339 142.11239202 -23.08918413 143.70359646 -41.32421875 138.25 C-60.01948277 131.89241819 -74.47251856 119.51897821 -83.375 101.9375 C-86.20357384 96.13108541 -88.58547244 90.32445794 -90 84 C-90.17917969 83.2884375 -90.35835937 82.576875 -90.54296875 81.84375 C-92.76153549 68.03933475 -91.26976111 54.85414105 -86 42 C-85.61585938 41.05769531 -85.23171875 40.11539063 -84.8359375 39.14453125 C-77.49046925 23.02947335 -62.58422765 8.87367171 -46.1640625 2.4296875 C-42.80731218 1.18693748 -39.41508367 0.0723915 -36 -1 C-25.57355657 -4.47548114 -10.46441216 -2.6037435 0 0 Z " fill="#FEFDFD" transform="translate(663,454)"/>
<path d="M0 0 C1.13904785 0.00499512 2.2780957 0.00999023 3.45166016 0.01513672 C12.92481323 0.20994699 20.6145806 1.72524279 29.3125 5.5 C30.91931641 6.16902344 30.91931641 6.16902344 32.55859375 6.8515625 C49.87607432 14.74921606 62.66304873 29.36823141 69.66796875 46.890625 C76.07955812 65.685609 74.58781312 85.49679219 66.3125 103.5 C56.67547596 121.64317281 41.34876066 133.44898431 22.3828125 140.60546875 C13.50478534 143.22460973 4.46751247 142.85034728 -4.6875 142.5 C-5.73550781 142.4690625 -6.78351563 142.438125 -7.86328125 142.40625 C-26.73433562 141.31385901 -40.81271588 130.92997548 -53.375 117.6875 C-61.91038238 107.88538242 -65.9732376 98.00603697 -68.6875 85.5 C-68.88085938 84.71367187 -69.07421875 83.92734375 -69.2734375 83.1171875 C-72.38824525 63.42925171 -67.64884488 44.74213603 -56.5859375 28.39453125 C-42.43596699 10.15393291 -23.08523123 -0.13371811 0 0 Z " fill="#FEFEFD" transform="translate(1176.6875,143.5)"/>
<path d="M0 0 C0.80202347 0.01260864 1.60404694 0.02521729 2.43037415 0.03820801 C4.31699557 0.0689072 6.20351321 0.10638581 8.08990479 0.14892578 C11.87142822 0.22826378 15.65301832 0.27844943 19.43505859 0.32421875 C27.8597421 0.42852894 36.2840324 0.5536086 44.70837402 0.68231201 C48.74502036 0.74367265 52.78169087 0.80339987 56.81835938 0.86328125 C64.68491981 0.980209 72.55145241 1.09889249 80.41796875 1.21875 C80.41796875 1.54875 80.41796875 1.87875 80.41796875 2.21875 C78.81850151 2.20875725 78.81850151 2.20875725 77.1867218 2.19856262 C67.13718511 2.13774453 57.08768576 2.09277397 47.03800678 2.06331348 C41.87136985 2.04765838 36.7048815 2.02642278 31.53833008 1.99243164 C26.55220771 1.95983289 21.56622826 1.94189582 16.58000755 1.93411827 C14.67780495 1.92857571 12.77561016 1.91775245 10.8734684 1.90155983 C8.20884937 1.87977874 5.5448207 1.87678336 2.88012695 1.87817383 C1.70084625 1.86199509 1.70084625 1.86199509 0.4977417 1.8454895 C-5.04085698 1.87675772 -8.00045859 3.21086016 -12.26953125 6.53125 C-14.09994966 8.8846451 -14.76152927 11.37855084 -15.58203125 14.21875 C-16.33203125 12.65625 -16.33203125 12.65625 -16.58203125 10.21875 C-12.94338835 2.24172518 -8.87559806 -0.28358859 0 0 Z " fill="#FBE9E3" transform="translate(1216.58203125,539.78125)"/>
<path d="M0 0 C1.32547852 0.02030273 1.32547852 0.02030273 2.67773438 0.04101562 C4.84792023 0.07620783 7.01779033 0.13001015 9.1875 0.1875 C9.1875 0.5175 9.1875 0.8475 9.1875 1.1875 C7.43373047 1.24357422 7.43373047 1.24357422 5.64453125 1.30078125 C4.09632325 1.3664628 2.54814758 1.43290939 1 1.5 C0.23107422 1.52255859 -0.53785156 1.54511719 -1.33007812 1.56835938 C-6.86352594 1.82959511 -10.08587058 3.06678823 -14.5 6.5 C-16.33041841 8.8533951 -16.99199802 11.34730084 -17.8125 14.1875 C-18.5625 12.625 -18.5625 12.625 -18.8125 10.1875 C-14.61212201 0.97897901 -9.69340371 -0.28191107 0 0 Z " fill="#F3C3B2" transform="translate(1218.8125,539.8125)"/>
<path d="M0 0 C0.66 0.33 1.32 0.66 2 1 C-3.61 6.61 -9.22 12.22 -15 18 C-15 12.78391019 -10.50427167 9.58349868 -7 6 C-4.72395669 3.90689101 -2.40160434 1.95130352 0 0 Z " fill="#E16337" transform="translate(1119,755)"/>
</svg>
